<svg xmlns="http://www.w3.org/2000/svg" width="223" height="94" fill="none">
    <path fill="#fff" d="M138.877 94v-1.75h-1.75V90.5h-1.75v-1.75h-1.75V87h3.5v-7h5.25v7h3.5v1.75h-1.75v1.75h-1.75v1.75h-1.75V94h-1.75ZM110.877 94v-1.75h-1.75V90.5h-1.75v-1.75h-1.75V87h3.5v-7h5.25v7h3.5v1.75h-1.75v1.75h-1.75v1.75h-1.75V94h-1.75ZM82.877 94v-1.75h-1.75V90.5h-1.75v-1.75h-1.75V87h3.5v-7h5.25v7h3.5v1.75h-1.75v1.75h-1.75v1.75h-1.75V94h-1.75ZM154.627 52.25V40h12.25v1.75h-8.75v3.5h7V47h-7v3.5h8.75v1.75h-12.25ZM142.377 52.25V50.5h-1.75V40h3.5v10.5h5.25V40h3.5v10.5h-1.75v1.75h-8.75ZM126.627 52.25V40h3.5v1.75h1.75v1.75h1.75v1.75h1.75V40h3.5v12.25h-3.5v-3.5h-1.75V47h-1.75v-1.75h-1.75v7h-3.5ZM114.377 52.25V50.5h3.5v-8.75h-3.5V40h10.5v1.75h-3.5v8.75h3.5v1.75h-10.5ZM103.877 52.25v-10.5h-3.5V40h10.5v1.75h-3.5v10.5h-3.5ZM84.627 52.25V40h3.5v1.75h1.75v1.75h1.75v1.75h1.75V40h3.5v12.25h-3.5v-3.5h-1.75V47h-1.75v-1.75h-1.75v7h-3.5ZM72.377 52.25V50.5h-1.75v-8.75h1.75V40h8.75v1.75h1.75v8.75h-1.75v1.75h-8.75Zm1.75-1.75h5.25v-8.75h-5.25v8.75ZM60.127 52.25V50.5h-1.75v-1.75h-1.75V43.5h1.75v-1.75h1.75V40h7v1.75h1.75v1.75h-3.5v-1.75h-3.5v1.75h-1.75v5.25h1.75v1.75h3.5v-1.75h3.5v1.75h-1.75v1.75h-7ZM212.377 32.25V30.5h-1.75v-8.75h1.75V20h8.75v1.75h1.75v8.75h-1.75v1.75h-8.75Zm1.75-1.75h5.25v-8.75h-5.25v8.75ZM201.877 32.25v-10.5h-3.5V20h10.5v1.75h-3.5v10.5h-3.5ZM170.377 32.25V30.5h-1.75V20h3.5v7h1.75v-7h1.75v7h1.75v-7h3.5v10.5h-1.75v1.75h-1.75V30.5h-1.75v-1.75h-1.75v1.75h-1.75v1.75h-1.75ZM156.377 32.25V30.5h-1.75v-8.75h1.75V20h8.75v1.75h1.75v8.75h-1.75v1.75h-8.75Zm1.75-1.75h5.25v-8.75h-5.25v8.75ZM142.377 32.25V20h3.5v10.5h7v1.75h-10.5ZM126.627 32.25V20h12.25v1.75h-8.75v3.5h7V27h-7v3.5h8.75v1.75h-12.25ZM112.627 32.25V20h10.5v1.75h1.75v3.5h-1.75V27h1.75v3.5h-1.75v1.75h-10.5Zm3.5-7h5.25v-3.5h-5.25v3.5Zm0 5.25h5.25V27h-5.25v3.5ZM86.377 32.25V30.5h-1.75v-1.75h3.5v1.75h5.25V27h-7v-1.75h-1.75v-3.5h1.75V20h8.75v1.75h1.75v1.75h-3.5v-1.75h-5.25v3.5h7V27h1.75v3.5h-1.75v1.75h-8.75ZM70.627 32.25V20h3.5v1.75h1.75v1.75h1.75v1.75h1.75V20h3.5v12.25h-3.5v-3.5h-1.75V27h-1.75v-1.75h-1.75v7h-3.5ZM58.377 32.25V30.5h-1.75v-8.75h1.75V20h8.75v1.75h1.75v8.75h-1.75v1.75h-8.75Zm1.75-1.75h5.25v-8.75h-5.25v8.75ZM47.877 32.25v-10.5h-3.5V20h10.5v1.75h-3.5v10.5h-3.5ZM33.877 32.25v-10.5h-3.5V20h10.5v1.75h-3.5v10.5h-3.5ZM16.377 32.25V30.5h-1.75V20h3.5v10.5h5.25V20h3.5v10.5h-1.75v1.75h-8.75ZM.627 32.25V20h10.5v1.75h1.75v3.5h-1.75V27h1.75v3.5h-1.75v1.75H.627Zm3.5-7h5.25v-3.5h-5.25v3.5Zm0 5.25h5.25V27h-5.25v3.5ZM196.627 12.25V0h12.25v1.75h-8.75v3.5h7V7h-7v3.5h8.75v1.75h-12.25ZM182.627 12.25V0h3.5v5.25h5.25V0h3.5v12.25h-3.5V7h-5.25v5.25h-3.5ZM173.877 12.25V1.75h-3.5V0h10.5v1.75h-3.5v10.5h-3.5ZM140.627 12.25V0h12.25v1.75h-8.75v3.5h7V7h-7v5.25h-3.5ZM128.377 12.25V10.5h-1.75V1.75h1.75V0h8.75v1.75h1.75v8.75h-1.75v1.75h-8.75Zm1.75-1.75h5.25V1.75h-5.25v8.75ZM98.627 12.25V0h12.25v1.75h-8.75v3.5h7V7h-7v3.5h8.75v1.75h-12.25ZM84.627 12.25V0h3.5v1.75h1.75V3.5h1.75v1.75h1.75V0h3.5v12.25h-3.5v-3.5h-1.75V7h-1.75V5.25h-1.75v7h-3.5ZM72.377 12.25V10.5h-1.75V1.75h1.75V0h8.75v1.75h1.75v8.75h-1.75v1.75h-8.75Zm1.75-1.75h5.25V1.75h-5.25v8.75ZM42.627 12.25V0h10.5v1.75h1.75V7h-1.75v1.75h-7v3.5h-3.5Zm3.5-5.25h5.25V1.75h-5.25V7ZM28.627 12.25V3.5h1.75V1.75h1.75V0h5.25v1.75h1.75V3.5h1.75v8.75h-3.5v-3.5h-5.25v3.5h-3.5Zm3.5-5.25h5.25V3.5h-1.75V1.75h-1.75V3.5h-1.75V7ZM19.877 12.25V1.75h-3.5V0h10.5v1.75h-3.5v10.5h-3.5Z"/>
</svg>
