<svg width="153" height="24" viewBox="0 0 153 24" fill="none" xmlns="http://www.w3.org/2000/svg">
    <g clip-path="url(#clip0_1652_870)">
        <path d="M24.375 24H0.375V0H24.375V24ZM12.375 4.5C8.23311 4.5 4.8754 5.93881 4.875 7.71387C4.875 8.5374 5.59777 9.28868 6.78613 9.85742C5.59793 10.4261 4.875 11.1765 4.875 12C4.87503 12.8234 5.5972 13.5749 6.78516 14.1436C5.59751 14.7122 4.875 15.4629 4.875 16.2861C4.87553 18.0611 8.23319 19.5 12.375 19.5C16.5168 19.5 19.8745 18.0611 19.875 16.2861C19.875 15.4627 19.152 14.7123 17.9639 14.1436C19.1523 13.5748 19.875 12.8235 19.875 12C19.875 11.1763 19.1516 10.4262 17.9629 9.85742C19.1517 9.28864 19.875 8.53758 19.875 7.71387C19.8746 5.93881 16.5169 4.5 12.375 4.5Z" fill="#FAFAFA"/>
    </g>
    <path d="M149.812 21C151.366 21 152.625 19.7408 152.625 18.1875V17.625C152.625 16.3824 151.618 15.375 150.375 15.375C149.132 15.375 148.125 14.3676 148.125 13.125V7.5C148.125 5.01472 146.11 3 143.625 3L139.125 3C136.64 3 134.625 5.01472 134.625 7.5L134.625 16.5C134.625 18.9853 136.64 21 139.125 21H149.812Z" fill="white"/>
    <path fill-rule="evenodd" clip-rule="evenodd" d="M114.375 3H132.375V8.625H121.125V9.75H132.375V14.25H121.125V15.375H132.375V21H114.375V3Z" fill="white"/>
    <path d="M109.875 11.325C111.118 11.325 112.125 10.3176 112.125 9.075V7.1625C112.125 4.86362 110.261 3 107.963 3L105.825 3C104.582 3 103.575 4.00736 103.575 5.25L103.575 6.9375C103.575 7.24816 103.323 7.5 103.012 7.5C102.702 7.5 102.45 7.24816 102.45 6.9375L102.45 5.25C102.45 4.00736 101.443 3 100.2 3L98.2875 3C95.9886 3 94.125 4.86361 94.125 7.1625L94.125 16.8375C94.125 19.1364 95.9886 21 98.2875 21H100.2C101.443 21 102.45 19.9926 102.45 18.75V17.0625C102.45 16.7518 102.702 16.5 103.013 16.5C103.323 16.5 103.575 16.7518 103.575 17.0625V18.75C103.575 19.9926 104.582 21 105.825 21H107.85C110.211 21 112.125 19.086 112.125 16.725V14.7C112.125 13.4574 111.118 12.45 109.875 12.45H108.188C107.877 12.45 107.625 12.1982 107.625 11.8875C107.625 11.5768 107.877 11.325 108.188 11.325H109.875Z" fill="white"/>
    <path fill-rule="evenodd" clip-rule="evenodd" d="M87.375 12.45H91.875V21H83.325V16.5H82.2V21H73.875L73.875 3L91.875 3V11.325H87.375V12.45ZM83.325 3V7.5H82.2V3L83.325 3Z" fill="white"/>
    <path fill-rule="evenodd" clip-rule="evenodd" d="M54.8136 4.27717C53.1537 5.93575 53.2883 8.96387 54.8684 12.0757C53.3602 15.134 53.2565 18.0912 54.8894 19.7228C56.5211 21.3533 59.4773 21.251 62.5356 19.7471C65.657 21.3358 68.6971 21.4745 70.3606 19.8123C72.0097 18.1645 71.8876 15.1649 70.3364 12.0744C71.959 8.93171 72.1119 5.86192 70.4364 4.18768C68.7597 2.51224 65.6843 2.66652 62.5369 4.2911C59.4513 2.75089 56.459 2.63303 54.8136 4.27717ZM63.75 12C63.75 11.3787 63.2463 10.875 62.625 10.875C62.0037 10.875 61.5 11.3787 61.5 12C61.5 12.6213 62.0037 13.125 62.625 13.125C63.2463 13.125 63.75 12.6213 63.75 12Z" fill="white"/>
    <path fill-rule="evenodd" clip-rule="evenodd" d="M33.375 3H51.375V8.625H40.125V9.75H51.375V21H33.375V15.375H44.625V14.25H33.375V3Z" fill="white"/>
    <defs>
        <clipPath id="clip0_1652_870">
            <rect x="0.375" width="24" height="24" rx="3" fill="white"/>
        </clipPath>
    </defs>
</svg>
