<svg xmlns="http://www.w3.org/2000/svg" fill="none" viewBox="0 0 107 23">
  <path fill="#000" d="M11.27 22.42c-4.17 0-7.8-1.5-10.35-3.81l4.02-4.8c2.4 2.01 4.86 2.97 7.08 2.97.9 0 1.53-.33 1.53-.93 0-.66-.39-.87-3.45-2.01-3.9-1.44-5.73-2.82-5.73-5.91 0-1.77.72-3.39 1.98-4.65C8 1.63 10.58.58 13.82.58c3.75 0 7.08 1.2 9.36 3.15l-4.02 4.8c-1.59-1.29-3.84-2.34-6.06-2.34-.9 0-1.53.24-1.53.84 0 .63.45.75 3.36 1.83 3.57 1.32 5.85 2.82 5.85 6.03 0 1.89-.69 3.6-2.01 4.92-1.59 1.59-4.17 2.61-7.5 2.61Zm19.06-.03c-5.16 0-8.19-3.36-8.19-7.62 0-2.52 1.05-4.92 2.82-6.69 1.74-1.74 4.17-2.85 6.99-2.85 5.16 0 8.19 3.36 8.19 7.62 0 2.52-1.05 4.92-2.82 6.69-1.74 1.74-4.17 2.85-6.99 2.85Zm.42-5.55c.72 0 1.35-.3 1.86-.81.69-.69 1.11-1.74 1.11-2.88 0-1.38-.87-2.37-2.19-2.37-.72 0-1.35.3-1.86.81-.69.69-1.11 1.74-1.11 2.88 0 1.38.87 2.37 2.19 2.37ZM39.532 22 45.412.1h6.81l-2.73 10.11 4.38-4.59h7.77l-7.17 7.02 2.88 9.36h-7.08l-1.23-4.74-1.95 1.95-.75 2.79h-6.81Zm18.223 0L63.635.1h6.81l-2.73 10.11 4.38-4.59h7.77l-7.17 7.02 2.88 9.36h-7.08l-1.23-4.74-1.95 1.95-.75 2.79h-6.81Zm35.936-6.6h-10.53c.09 1.32.93 2.19 2.46 2.19 1.11 0 2.16-.45 3.3-1.32l3.15 3.45c-1.86 1.65-4.14 2.67-7.02 2.67-4.98 0-8.04-2.91-8.04-7.2 0-2.64 1.05-5.28 2.91-7.14 1.74-1.74 4.11-2.82 7.05-2.82 5.4 0 7.2 3.66 7.2 7.11 0 1.08-.18 2.13-.48 3.06Zm-9.15-4.59c-.39.39-.72.9-.96 1.59h4.62c.09-.24.12-.48.12-.72 0-.9-.66-1.74-1.77-1.74-.63 0-1.38.24-2.01.87ZM93.322 22 99.202.1h6.81l-5.88 21.9h-6.81Z"/>
</svg>
