<svg xmlns="http://www.w3.org/2000/svg" fill="none" viewBox="0 0 101 23">
  <path fill="#000" d="m0 22 10.4-11L6 1h7.6l2 5.1L20.2 1h8.2l-9.6 10.3L23.3 22h-7.6l-2.2-6-5.3 6H0Zm23.3-6.7 1.5-5.5h10.5l-1.5 5.5H23.3ZM48.8.6C55 .6 59.2 4.7 59.2 10A12.4 12.4 0 0 1 47 22.4c-6.2 0-10.5-4.1-10.5-9.5A12.4 12.4 0 0 1 48.8.6Zm-1.5 15.6c1.3 0 2.4-.5 3.2-1.3a6 6 0 0 0 1.7-4.2c0-2.2-1.4-4-3.9-4-1.3 0-2.3.6-3.1 1.4a6 6 0 0 0-1.7 4.2c0 2.2 1.3 4 3.8 4ZM58.1 22l5.6-21h7c4 0 6.3.8 7.9 2.3a5.8 5.8 0 0 1 1.6 4.2 8 8 0 0 1-2.3 6 11.5 11.5 0 0 1-8.3 2.8h-3L65.1 22h-7ZM72.6 7.3c-.4-.5-1.3-.7-2-.7h-1.4L68 11.3h1.2c1.5 0 2.6-.3 3.3-1 .4-.5.6-1.1.6-1.8 0-.4-.1-.9-.5-1.2Zm15.6 15.1c-4.2 0-7.8-1.5-10.3-3.8l4-4.8c2.4 2 4.8 3 7 3 1 0 1.6-.4 1.6-1s-.4-.8-3.5-2c-3.9-1.4-5.7-2.8-5.7-5.9 0-1.7.7-3.4 2-4.6C84.9 1.6 87.5.6 90.8.6c3.7 0 7 1.2 9.3 3.1l-4 4.8a10.1 10.1 0 0 0-6-2.3c-1 0-1.6.2-1.6.8 0 .7.5.8 3.4 1.9 3.5 1.3 5.8 2.8 5.8 6 0 1.9-.7 3.6-2 5a10.4 10.4 0 0 1-7.5 2.5Z"/>
</svg>
